<svg width="800" height="70" viewBox="0 0 800 70" fill="none" xmlns="http://www.w3.org/2000/svg">
<g clip-path="url(#clip0_2325_1532)">
<circle cx="30" cy="30" r="29" fill="#8BA4E4" stroke="#6289EC" stroke-width="2"/>
<path d="M30 13.333L30 18.333" stroke="white" stroke-width="2.5" stroke-linecap="round" stroke-linejoin="round"/>
<path d="M30 41.666L30 46.666" stroke="white" stroke-width="2.5" stroke-linecap="round" stroke-linejoin="round"/>
<path d="M46.6665 30L41.6665 30" stroke="white" stroke-width="2.5" stroke-linecap="round" stroke-linejoin="round"/>
<path d="M18.3335 30L13.3335 30" stroke="white" stroke-width="2.5" stroke-linecap="round" stroke-linejoin="round"/>
<path d="M41.785 18.2145L38.2495 21.75" stroke="white" stroke-width="2.5" stroke-linecap="round" stroke-linejoin="round"/>
<path d="M21.7499 38.2496L18.2144 41.7852" stroke="white" stroke-width="2.5" stroke-linecap="round" stroke-linejoin="round"/>
<path d="M18.215 18.2145L21.7505 21.75" stroke="white" stroke-width="2.5" stroke-linecap="round" stroke-linejoin="round"/>
<path d="M38.2491 38.2496L41.7847 41.7852" stroke="white" stroke-width="2.5" stroke-linecap="round" stroke-linejoin="round"/>
<circle cx="330" cy="30" r="29" fill="#A0DDFF" stroke="#64C7FF" stroke-width="2"/>
<path d="M342.181 24.5768C341.181 22.3305 339.579 20.4044 337.552 19.0116C335.526 17.6189 333.154 16.8136 330.698 16.6849C328.242 16.5562 325.799 17.1091 323.638 18.2824C322.515 18.892 321.492 19.6567 320.595 20.5494" stroke="white" stroke-width="2.5" stroke-linecap="round"/>
<path d="M315.386 19.1924L316.602 24.4583C316.809 25.3552 317.704 25.9144 318.601 25.7073L323.867 24.4916" stroke="white" stroke-width="2.5" stroke-linecap="round"/>
<path d="M317.819 35.4228C318.819 37.6692 320.421 39.5953 322.448 40.988C324.474 42.3808 326.846 43.1861 329.302 43.3147C331.758 43.4434 334.201 42.8906 336.362 41.7172C337.386 41.1611 338.328 40.4759 339.167 39.6822" stroke="white" stroke-width="2.5" stroke-linecap="round"/>
<path d="M344.614 40.8066L343.398 35.5407C343.191 34.6438 342.296 34.0846 341.399 34.2917L336.133 35.5074" stroke="white" stroke-width="2.5" stroke-linecap="round"/>
<circle cx="430" cy="30" r="29" fill="#8BA4E4" stroke="#6289EC" stroke-width="2"/>
<rect x="413.333" y="12.333" width="33.3333" height="33.3333" rx="16.6667" stroke="white" stroke-width="2.5"/>
<path d="M427.348 26.3482L434.714 24.2858L432.652 31.6515L425.286 33.7139L427.348 26.3482Z" stroke="white" stroke-width="2.5" stroke-linecap="round" stroke-linejoin="round"/>
<circle cx="530" cy="30" r="29" fill="#A0DDFF" stroke="#64C7FF" stroke-width="2"/>
<path d="M539.876 38.0899C539.189 38.1581 538.688 38.7703 538.756 39.4573C538.824 40.1443 539.436 40.6459 540.123 40.5777L539.876 38.0899ZM520 40.6204C520.69 40.6204 521.25 40.0607 521.25 39.3704C521.25 38.68 520.69 38.1204 520 38.1204V40.6204ZM538.182 24.6217L537.065 25.1826L538.182 24.6217ZM538.2 24.6308L538.022 23.3934L538.2 24.6308ZM518.932 28.2441L517.687 28.1301L518.932 28.2441ZM518.915 28.2594L518.916 27.0094L518.915 28.2594ZM518.889 38.1204C516.511 38.1204 514.583 36.1927 514.583 33.8148H512.083C512.083 37.5734 515.13 40.6204 518.889 40.6204V38.1204ZM520.176 28.3582C520.593 23.8117 524.418 20.25 529.074 20.25V17.75C523.114 17.75 518.22 22.3086 517.687 28.1301L520.176 28.3582ZM529.074 20.25C532.568 20.25 535.595 22.2549 537.065 25.1826L539.299 24.0609C537.422 20.3211 533.549 17.75 529.074 17.75V20.25ZM514.583 33.8148C514.583 31.4662 516.56 29.5073 518.914 29.5094L518.916 27.0094C515.196 27.0062 512.083 30.069 512.083 33.8148H514.583ZM538.377 25.8682C542.005 25.3485 545.417 28.275 545.417 31.963H547.917C547.917 26.7413 543.145 22.6598 538.022 23.3934L538.377 25.8682ZM545.417 31.963C545.417 35.155 542.987 37.7811 539.876 38.0899L540.123 40.5777C544.5 40.1432 547.917 36.4529 547.917 31.963H545.417ZM520 38.1204H518.889V40.6204H520V38.1204ZM537.065 25.1826C537.312 25.6741 537.843 25.9446 538.377 25.8682L538.022 23.3934C538.542 23.319 539.059 23.5822 539.299 24.0609L537.065 25.1826ZM517.687 28.1301C517.745 27.4933 518.28 27.0088 518.916 27.0094L518.914 29.5094C519.568 29.5099 520.117 29.0122 520.176 28.3582L517.687 28.1301Z" fill="white"/>
<path d="M525.833 39.8334L529.411 43.4107C529.736 43.7362 530.264 43.7362 530.589 43.4107L534.167 39.8334" stroke="white" stroke-width="2.5" stroke-linecap="round"/>
<path d="M530 42.333L530 32.333" stroke="white" stroke-width="2.5" stroke-linecap="round"/>
<circle cx="230" cy="30" r="29" fill="#8BA4E4" stroke="#6289EC" stroke-width="2"/>
<path d="M243.895 18.3874C247.59 22.2815 247.59 28.5951 243.895 32.4892L233.627 43.311C231.655 45.3888 228.345 45.3888 226.373 43.311L216.105 32.4892C212.41 28.5951 212.41 22.2815 216.105 18.3874C219.799 14.4933 225.79 14.4933 229.485 18.3874V18.3874C229.765 18.6822 230.235 18.6822 230.515 18.3874V18.3874C231.241 17.6216 232.057 17.0064 232.926 16.5418C233.96 15.9889 235.071 15.6493 236.199 15.5229C236.868 15.4481 237.542 15.4481 238.211 15.5229" stroke="white" stroke-width="2.5" stroke-linecap="round"/>
<circle cx="130" cy="30" r="29" fill="#A0DDFF" stroke="#64C7FF" stroke-width="2"/>
<path d="M124.681 24.0068C124.681 27.1403 127.222 29.6805 130.355 29.6805C133.489 29.6805 136.029 27.1403 136.029 24.0068C136.029 20.8732 133.489 18.333 130.355 18.333" stroke="white" stroke-width="2.5" stroke-linecap="round"/>
<path d="M120.426 38.0987C120.426 36.8783 121.193 35.7897 122.342 35.3792V35.3792C127.524 33.5287 133.186 33.5287 138.367 35.3792V35.3792C139.517 35.7897 140.284 36.8783 140.284 38.0987V39.9646C140.284 41.6489 138.792 42.9428 137.125 42.7046L136.569 42.6252C132.447 42.0363 128.263 42.0363 124.141 42.6252L123.585 42.7046C121.918 42.9428 120.426 41.649 120.426 39.9646V38.0987Z" stroke="white" stroke-width="2.5"/>
<path d="M138.865 29.8378C141.327 29.8378 143.323 27.8419 143.323 25.3798C143.323 22.9178 141.327 20.9219 138.865 20.9219" stroke="white" stroke-width="2.5" stroke-linecap="round"/>
<path d="M143.747 40.0083L144.184 40.0707C145.494 40.2578 146.666 39.2412 146.666 37.9179V36.4517C146.666 35.4929 146.064 34.6375 145.161 34.315C144.26 33.9933 143.341 33.7428 142.411 33.5635" stroke="white" stroke-width="2.5" stroke-linecap="round"/>
<path d="M121.135 29.8378C118.673 29.8378 116.677 27.8419 116.677 25.3798C116.677 22.9178 118.673 20.9219 121.135 20.9219" stroke="white" stroke-width="2.5" stroke-linecap="round"/>
<path d="M116.253 40.0083L115.816 40.0707C114.506 40.2578 113.334 39.2412 113.334 37.9179V36.4517C113.334 35.4929 113.937 34.6375 114.84 34.315C115.741 33.9933 116.66 33.7428 117.589 33.5635" stroke="white" stroke-width="2.5" stroke-linecap="round"/>
<path d="M609 19L614.331 12.7809C614.716 12.3316 614.716 11.6684 614.331 11.2191L609 5" stroke="white" stroke-width="1.5" stroke-linecap="round"/>
<path d="M715 19L709.669 12.7809C709.284 12.3316 709.284 11.6684 709.669 11.2191L715 5" stroke="white" stroke-width="1.5" stroke-linecap="round"/>
</g>
<defs>
<clipPath id="clip0_2325_1532">
<rect width="800" height="70" fill="white"/>
</clipPath>
</defs>
</svg>
