<svg width="132" height="85" viewBox="0 0 132 85" fill="none" xmlns="http://www.w3.org/2000/svg">
<path d="M28.9035 0L30 1.13028L2.2575 28.1398L30 55.1494L28.9035 56.2797L0 28.1398L28.9035 0Z" fill="white"/>
<path d="M51.0965 56.2797L50 55.1494L77.7425 28.1398L50 1.13028L51.0965 0L80 28.1398L51.0965 56.2797Z" fill="white"/>
<path d="M8 85C11.866 85 15 81.866 15 78C15 74.134 11.866 71 8 71C4.13401 71 1 74.134 1 78C1 81.866 4.13401 85 8 85Z" fill="white"/>
<path d="M28 83C30.7614 83 33 80.7614 33 78C33 75.2386 30.7614 73 28 73C25.2386 73 23 75.2386 23 78C23 80.7614 25.2386 83 28 83Z" stroke="white" stroke-width="4"/>
<path d="M53 78.0005L41 84.9287V71.0723L53 78.0005Z" fill="white"/>
<path d="M71.389 71H67.611C67.2736 71 67 71.2394 67 71.5346V84.4654C67 84.7606 67.2736 85 67.611 85H71.389C71.7264 85 72 84.7606 72 84.4654V71.5346C72 71.2394 71.7264 71 71.389 71Z" fill="white"/>
<path d="M65.389 71H61.611C61.2736 71 61 71.2394 61 71.5346V84.4654C61 84.7606 61.2736 85 61.611 85H65.389C65.7264 85 66 84.7606 66 84.4654V71.5346C66 71.2394 65.7264 71 65.389 71Z" fill="white"/>
<path d="M111.066 1.65176L110.718 1.29252L110.359 1.64165L102.651 9.14164L102.283 9.49999L102.651 9.85833L110.359 17.3583L110.718 17.7075L111.066 17.3482L111.359 17.047L111.707 16.6887L111.349 16.3404L104.319 9.49999L111.349 2.6596L111.707 2.31134L111.359 1.953L111.066 1.65176Z" fill="white" stroke="white"/>
<path d="M116.934 17.3482L117.282 17.7075L117.641 17.3583L125.349 9.85833L125.717 9.49999L125.349 9.14164L117.641 1.64165L117.282 1.29252L116.934 1.65176L116.641 1.95301L116.293 2.31134L116.651 2.6596L123.681 9.49999L116.651 16.3404L116.293 16.6887L116.641 17.047L116.934 17.3482Z" fill="white" stroke="white"/>
</svg>
