<svg width="360" height="60" viewBox="0 0 360 60" fill="none" xmlns="http://www.w3.org/2000/svg">
<g clip-path="url(#clip0_1856_811)">
<rect width="360" height="60" fill="white"/>
<circle cx="30" cy="30" r="30" fill="#FABBBB"/>
<path d="M40.5061 31.3482L39.5896 30.4981L40.5061 31.3482ZM28.7209 19.5631L29.571 20.4796L28.7209 19.5631ZM46.1017 17.1205L47.3411 17.2826L46.1017 17.1205ZM42.9486 13.9674L43.1107 15.2069L42.9486 13.9674ZM20.8241 31.0843L21.9465 31.6346L21.9465 31.6346L20.8241 31.0843ZM28.9848 39.245L28.4345 38.1226L28.4345 38.1226L28.9848 39.245ZM26.9841 30.2005C26.496 29.7123 25.7045 29.7123 25.2163 30.2005C24.7282 30.6886 24.7282 31.4801 25.2163 31.9682L26.9841 30.2005ZM31.3727 38.1245C31.8608 38.6127 32.6523 38.6127 33.1404 38.1245C33.6286 37.6364 33.6286 36.8449 33.1404 36.3568L31.3727 38.1245ZM20.7661 41.0708C21.2542 40.5827 21.2542 39.7912 20.7661 39.303C20.2779 38.8149 19.4864 38.8149 18.9983 39.303L20.7661 41.0708ZM14.2842 44.0171C13.7961 44.5052 13.7961 45.2967 14.2842 45.7849C14.7724 46.273 15.5639 46.273 16.052 45.7849L14.2842 44.0171ZM17.2305 37.5353C17.7187 37.0471 17.7187 36.2557 17.2305 35.7675C16.7424 35.2794 15.9509 35.2794 15.4628 35.7675L17.2305 37.5353ZM13.1057 38.1245C12.6176 38.6127 12.6176 39.4041 13.1057 39.8923C13.5939 40.3805 14.3853 40.3805 14.8735 39.8923L13.1057 38.1245ZM24.3016 44.6064C24.7897 44.1182 24.7897 43.3267 24.3016 42.8386C23.8134 42.3504 23.022 42.3504 22.5338 42.8386L24.3016 44.6064ZM20.1768 45.1956C19.6886 45.6838 19.6886 46.4752 20.1768 46.9634C20.665 47.4515 21.4564 47.4515 21.9446 46.9634L20.1768 45.1956ZM28.8978 44.9599C28.8002 44.2765 28.167 43.8016 27.4836 43.8992C26.8002 43.9969 26.3253 44.63 26.4229 45.3135L28.8978 44.9599ZM36.2635 39.362L37.5009 39.1852L37.5009 39.1852L36.2635 39.362ZM14.7556 33.6462C15.439 33.7439 16.0722 33.269 16.1698 32.5856C16.2675 31.9022 15.7926 31.269 15.1092 31.1714L14.7556 33.6462ZM20.7071 23.8057L20.5303 25.0431L20.5303 25.0431L20.7071 23.8057ZM38.0265 13.6298C37.3573 13.7992 36.9521 14.4791 37.1216 15.1484C37.291 15.8176 37.9709 16.2228 38.6401 16.0533L38.0265 13.6298ZM33.6634 17.7969C34.2877 17.502 34.5546 16.757 34.2598 16.1328C33.9649 15.5086 33.2199 15.2416 32.5956 15.5364L33.6634 17.7969ZM26.2506 37.7166L22.3525 33.8185L20.5847 35.5863L24.4828 39.4844L26.2506 37.7166ZM39.5896 30.4981C36.4335 33.901 31.309 36.7134 28.4345 38.1226L29.535 40.3674C32.4354 38.9455 37.9281 35.9659 41.4226 32.1982L39.5896 30.4981ZM21.9465 31.6346C23.3557 28.7601 26.1681 23.6356 29.571 20.4796L27.8709 18.6466C24.1032 22.141 21.1236 27.6337 19.7017 30.5341L21.9465 31.6346ZM44.8622 16.9584C44.3558 20.8307 43.0103 26.8099 39.5896 30.4981L41.4226 32.1982C45.4151 27.8934 46.8269 21.2143 47.3411 17.2826L44.8622 16.9584ZM47.3411 17.2826C47.6929 14.5928 45.4763 12.3762 42.7865 12.728L43.1107 15.2069C44.1723 15.068 45.0011 15.8968 44.8622 16.9584L47.3411 17.2826ZM22.3525 33.8185C21.7472 33.2132 21.5993 32.3428 21.9465 31.6346L19.7017 30.5341C18.8547 32.2618 19.2717 34.2733 20.5847 35.5863L22.3525 33.8185ZM24.4828 39.4844C25.7958 40.7974 27.8073 41.2144 29.535 40.3674L28.4345 38.1226C27.7263 38.4698 26.8559 38.3219 26.2506 37.7166L24.4828 39.4844ZM25.2163 31.9682L31.3727 38.1245L33.1404 36.3568L26.9841 30.2005L25.2163 31.9682ZM18.9983 39.303L14.2842 44.0171L16.052 45.7849L20.7661 41.0708L18.9983 39.303ZM15.4628 35.7675L13.1057 38.1245L14.8735 39.8923L17.2305 37.5353L15.4628 35.7675ZM22.5338 42.8386L20.1768 45.1956L21.9446 46.9634L24.3016 44.6064L22.5338 42.8386ZM31.9619 21.6254C30.172 23.4153 30.172 26.3173 31.9619 28.1072L33.7297 26.3394C32.9161 25.5258 32.9161 24.2067 33.7297 23.3931L31.9619 21.6254ZM31.9619 28.1072C33.7518 29.8971 36.6538 29.8971 38.4437 28.1072L36.676 26.3394C35.8624 27.153 34.5433 27.153 33.7297 26.3394L31.9619 28.1072ZM38.4437 28.1072C40.2336 26.3173 40.2336 23.4153 38.4437 21.6254L36.676 23.3931C37.4895 24.2067 37.4895 25.5258 36.676 26.3394L38.4437 28.1072ZM38.4437 21.6254C36.6538 19.8355 33.7518 19.8355 31.9619 21.6254L33.7297 23.3931C34.5433 22.5796 35.8624 22.5796 36.676 23.3931L38.4437 21.6254ZM34.9082 39.8923L29.6049 45.1956L31.3727 46.9634L36.676 41.6601L34.9082 39.8923ZM34.5546 36.2389L35.026 39.5388L37.5009 39.1852L37.0295 35.8854L34.5546 36.2389ZM29.6049 45.1956C29.3621 45.4384 28.9463 45.2998 28.8978 44.9599L26.4229 45.3135C26.7628 47.6928 29.6731 48.6629 31.3727 46.9634L29.6049 45.1956ZM36.676 41.6601C37.3251 41.0109 37.6307 40.094 37.5009 39.1852L35.026 39.5388C35.0446 39.6686 35.0009 39.7996 34.9082 39.8923L36.676 41.6601ZM18.409 23.3932L13.1057 28.6965L14.8735 30.4643L20.1768 25.161L18.409 23.3932ZM24.1837 23.0396L20.8839 22.5682L20.5303 25.0431L23.8301 25.5145L24.1837 23.0396ZM13.1057 28.6965C11.4062 30.396 12.3763 33.3063 14.7556 33.6462L15.1092 31.1714C14.7693 31.1228 14.6307 30.707 14.8735 30.4643L13.1057 28.6965ZM20.1768 25.161C20.2695 25.0682 20.4005 25.0246 20.5303 25.0431L20.8839 22.5682C19.9751 22.4384 19.0581 22.744 18.409 23.3932L20.1768 25.161ZM38.6401 16.0533C40.276 15.6391 41.8263 15.3749 43.1107 15.2069L42.7865 12.728C41.4276 12.9057 39.7778 13.1864 38.0265 13.6298L38.6401 16.0533ZM29.571 20.4796C30.7367 19.3983 32.1432 18.515 33.6634 17.7969L32.5956 15.5364C30.9063 16.3344 29.2689 17.3499 27.8709 18.6466L29.571 20.4796Z" fill="#2B3F6C"/>
<circle cx="90" cy="30" r="30" fill="#FFF5C0"/>
<path d="M83.3333 22.6667C83.3333 26.3486 86.3181 29.3333 90 29.3333C93.6819 29.3333 96.6667 26.3486 96.6667 22.6667C96.6667 18.9848 93.6819 16 90 16" stroke="#2B3F6C" stroke-width="2.5" stroke-linecap="round"/>
<path d="M78.3333 39.2245C78.3333 37.7905 79.2348 36.5114 80.5852 36.0291V36.0291C86.6734 33.8548 93.3266 33.8548 99.4149 36.0291V36.0291C100.765 36.5114 101.667 37.7905 101.667 39.2245V41.417C101.667 43.396 99.9138 44.9163 97.9547 44.6364L96.364 44.4092C92.1428 43.8061 87.8573 43.8061 83.636 44.4092L82.0454 44.6364C80.0862 44.9163 78.3333 43.396 78.3333 41.417V39.2245Z" stroke="#2B3F6C" stroke-width="2.5"/>
<circle cx="150" cy="29" r="30" fill="#BEFFA7"/>
<path d="M163.895 17.9208C167.59 21.8149 167.59 28.1285 163.895 32.0226L153.627 42.8443C151.655 44.9222 148.345 44.9222 146.373 42.8443L136.105 32.0226C132.41 28.1285 132.41 21.8149 136.105 17.9208C139.8 14.0267 145.79 14.0267 149.485 17.9208V17.9208C149.765 18.2156 150.235 18.2156 150.515 17.9208V17.9208C151.241 17.155 152.057 16.5398 152.926 16.0752C153.96 15.5223 155.071 15.1827 156.199 15.0563C156.868 14.9815 157.542 14.9815 158.211 15.0563" stroke="#2B3F6C" stroke-width="2.5" stroke-linecap="round"/>
<circle cx="210" cy="31" r="30" fill="#DCD0FF"/>
<path d="M210 14.3333L210 19.3333" stroke="#2B3F6C" stroke-width="2.5" stroke-linecap="round" stroke-linejoin="round"/>
<path d="M210 42.6667L210 47.6667" stroke="#2B3F6C" stroke-width="2.5" stroke-linecap="round" stroke-linejoin="round"/>
<path d="M226.667 31L221.667 31" stroke="#2B3F6C" stroke-width="2.5" stroke-linecap="round" stroke-linejoin="round"/>
<path d="M198.333 31L193.333 31" stroke="#2B3F6C" stroke-width="2.5" stroke-linecap="round" stroke-linejoin="round"/>
<path d="M221.785 19.2148L218.25 22.7504" stroke="#2B3F6C" stroke-width="2.5" stroke-linecap="round" stroke-linejoin="round"/>
<path d="M201.75 39.2499L198.215 42.7855" stroke="#2B3F6C" stroke-width="2.5" stroke-linecap="round" stroke-linejoin="round"/>
<path d="M198.215 19.2148L201.75 22.7504" stroke="#2B3F6C" stroke-width="2.5" stroke-linecap="round" stroke-linejoin="round"/>
<path d="M218.25 39.2499L221.785 42.7855" stroke="#2B3F6C" stroke-width="2.5" stroke-linecap="round" stroke-linejoin="round"/>
<circle cx="270" cy="29" r="30" fill="#DDDDDD"/>
<path d="M256.667 30.6666H255.417V31.9166H256.667V30.6666ZM263.333 31.9166C264.024 31.9166 264.583 31.357 264.583 30.6666C264.583 29.9763 264.024 29.4166 263.333 29.4166V31.9166ZM259.167 13.5833H267.5V11.0833H259.167V13.5833ZM257.917 30.6666V14.8333H255.417V30.6666H257.917ZM263.333 29.4166H256.667V31.9166H263.333V29.4166ZM268.75 14.8333V21.5H271.25V14.8333H268.75ZM267.5 13.5833C268.19 13.5833 268.75 14.143 268.75 14.8333H271.25C271.25 12.7622 269.571 11.0833 267.5 11.0833V13.5833ZM259.167 11.0833C257.096 11.0833 255.417 12.7623 255.417 14.8333H257.917C257.917 14.143 258.476 13.5833 259.167 13.5833V11.0833Z" fill="#2B3F6C"/>
<path d="M276.667 14.4167C275.976 14.4167 275.417 14.9763 275.417 15.6667C275.417 16.357 275.976 16.9167 276.667 16.9167V14.4167ZM281.408 18.3136L280.397 17.5784L281.408 18.3136ZM280.06 32.75H271.667V35.25H280.06V32.75ZM271.25 32.3334V15.6667H268.75V32.3334H271.25ZM280.397 17.5784L277.082 22.1376L279.103 23.608L282.419 19.0489L280.397 17.5784ZM277.082 27.5291L280.397 32.0883L282.419 30.6179L279.103 26.0587L277.082 27.5291ZM276.667 16.9167H280.06V14.4167H276.667V16.9167ZM277.082 22.1376C275.913 23.7447 275.913 25.922 277.082 27.5291L279.103 26.0587C278.572 25.3282 278.572 24.3385 279.103 23.608L277.082 22.1376ZM271.667 32.75C271.437 32.75 271.25 32.5635 271.25 32.3334H268.75C268.75 33.9442 270.056 35.25 271.667 35.25V32.75ZM280.06 35.25C282.444 35.25 283.821 32.5457 282.419 30.6179L280.397 32.0883C280.598 32.3637 280.401 32.75 280.06 32.75V35.25ZM282.419 19.0489C283.821 17.121 282.444 14.4167 280.06 14.4167V16.9167C280.401 16.9167 280.598 17.303 280.397 17.5784L282.419 19.0489Z" fill="#2B3F6C"/>
<path d="M256.667 45.6667L256.667 15.6667" stroke="#2B3F6C" stroke-width="2.5" stroke-linecap="round" stroke-linejoin="round"/>
<circle cx="330" cy="30" r="30" fill="#A0DDFF"/>
<path d="M339.876 39.0899C339.19 39.1581 338.688 39.7703 338.756 40.4573C338.824 41.1443 339.437 41.6459 340.123 41.5777L339.876 39.0899ZM320 41.6204C320.69 41.6204 321.25 41.0607 321.25 40.3704C321.25 39.68 320.69 39.1204 320 39.1204V41.6204ZM338.182 25.6217L337.065 26.1826L338.182 25.6217ZM338.2 25.6308L338.022 24.3934L338.2 25.6308ZM318.932 29.2441L317.687 29.1301L318.932 29.2441ZM318.915 29.2594L318.916 28.0094L318.915 29.2594ZM318.889 39.1204C316.511 39.1204 314.583 37.1927 314.583 34.8148H312.083C312.083 38.5734 315.13 41.6204 318.889 41.6204V39.1204ZM320.177 29.3582C320.593 24.8117 324.418 21.25 329.074 21.25V18.75C323.114 18.75 318.22 23.3086 317.687 29.1301L320.177 29.3582ZM329.074 21.25C332.568 21.25 335.595 23.2549 337.065 26.1826L339.299 25.0609C337.422 21.3211 333.549 18.75 329.074 18.75V21.25ZM314.583 34.8148C314.583 32.4662 316.56 30.5073 318.914 30.5094L318.916 28.0094C315.197 28.0062 312.083 31.069 312.083 34.8148H314.583ZM338.377 26.8682C342.005 26.3485 345.417 29.275 345.417 32.963H347.917C347.917 27.7413 343.145 23.6598 338.022 24.3934L338.377 26.8682ZM345.417 32.963C345.417 36.155 342.987 38.7811 339.876 39.0899L340.123 41.5777C344.5 41.1432 347.917 37.4529 347.917 32.963H345.417ZM320 39.1204H318.889V41.6204H320V39.1204ZM337.065 26.1826C337.312 26.6741 337.843 26.9446 338.377 26.8682L338.022 24.3934C338.542 24.319 339.059 24.5822 339.299 25.0609L337.065 26.1826ZM317.687 29.1301C317.745 28.4933 318.28 28.0088 318.916 28.0094L318.914 30.5094C319.568 30.5099 320.117 30.0122 320.177 29.3582L317.687 29.1301Z" fill="#2B3F6C"/>
<path d="M325.833 40.8334L329.411 44.4107C329.736 44.7362 330.264 44.7362 330.589 44.4107L334.167 40.8334" stroke="#2B3F6C" stroke-width="2.5" stroke-linecap="round"/>
<path d="M330 43.3333L330 33.3333" stroke="#2B3F6C" stroke-width="2.5" stroke-linecap="round"/>
</g>
<defs>
<clipPath id="clip0_1856_811">
<rect width="360" height="60" fill="white"/>
</clipPath>
</defs>
</svg>
